<svg width="34" height="32" viewBox="0 0 34 32" fill="none" xmlns="http://www.w3.org/2000/svg">
<path fill-rule="evenodd" clip-rule="evenodd" d="M28.7 16.2717C28.7 15.4247 28.6224 14.6104 28.4784 13.8286H17V18.4487H23.5591C23.2766 19.9416 22.4179 21.2066 21.1271 22.0535V25.0503H25.0659C27.3705 22.971 28.7 19.9091 28.7 16.2717Z" fill="#4285F4"/>
<path fill-rule="evenodd" clip-rule="evenodd" d="M17.0001 27.944C20.2907 27.944 23.0495 26.8745 25.066 25.0503L21.1272 22.0535C20.0359 22.7702 18.6399 23.1936 17.0001 23.1936C13.8258 23.1936 11.139 21.0926 10.1806 18.2695H6.10889V21.364C8.11428 25.2675 12.2359 27.944 17.0001 27.944Z" fill="#34A853"/>
<path fill-rule="evenodd" clip-rule="evenodd" d="M10.1805 18.2694C9.93679 17.5527 9.7983 16.7873 9.7983 16.0001C9.7983 15.2129 9.93679 14.4474 10.1805 13.7307V10.6362H6.10881C5.28338 12.2486 4.8125 14.0728 4.8125 16.0001C4.8125 17.9273 5.28338 19.7515 6.10881 21.3639L10.1805 18.2694Z" fill="#FBBC05"/>
<path fill-rule="evenodd" clip-rule="evenodd" d="M17.0001 8.807C18.7894 8.807 20.396 9.40961 21.659 10.5931L25.1546 7.16744C23.044 5.24016 20.2852 4.05664 17.0001 4.05664C12.2359 4.05664 8.11428 6.73313 6.10889 10.6366L10.1806 13.7311C11.139 10.908 13.8258 8.807 17.0001 8.807Z" fill="#EA4335"/>
</svg>
