<svg width="31" height="31" viewBox="0 0 31 31" fill="none" xmlns="http://www.w3.org/2000/svg">
<path d="M15.2422 27.6794C22.1457 27.6794 27.7422 22.083 27.7422 15.1794C27.7422 8.27588 22.1457 2.67944 15.2422 2.67944C8.33863 2.67944 2.74219 8.27588 2.74219 15.1794C2.74219 22.083 8.33863 27.6794 15.2422 27.6794Z" stroke="#747171" stroke-width="2" stroke-linecap="round" stroke-linejoin="round"/>
<path d="M11.6045 11.4294C11.8984 10.594 12.4784 9.88956 13.2419 9.44084C14.0054 8.99212 14.9031 8.8281 15.776 8.97781C16.6488 9.12753 17.4405 9.58133 18.0108 10.2588C18.5812 10.9363 18.8933 11.7938 18.892 12.6794C18.892 15.1794 15.142 16.4294 15.142 16.4294" stroke="#747171" stroke-width="2" stroke-linecap="round" stroke-linejoin="round"/>
<path d="M15.2422 21.4294H15.2547" stroke="#747171" stroke-width="2" stroke-linecap="round" stroke-linejoin="round"/>
</svg>
