<svg width="22" height="23" viewBox="0 0 22 23" fill="none" xmlns="http://www.w3.org/2000/svg">
<path d="M16.1298 2.16445C16.3947 1.89954 16.7092 1.68939 17.0553 1.54602C17.4015 1.40265 17.7725 1.32886 18.1471 1.32886C18.5217 1.32886 18.8927 1.40265 19.2389 1.54602C19.585 1.68939 19.8995 1.89954 20.1644 2.16445C20.4293 2.42937 20.6395 2.74387 20.7828 3.09C20.9262 3.43613 21 3.80711 21 4.18176C21 4.55641 20.9262 4.92739 20.7828 5.27352C20.6395 5.61965 20.4293 5.93415 20.1644 6.19906L6.54759 19.8159L1 21.3289L2.51298 15.7813L16.1298 2.16445Z" stroke="#BBBBBB" stroke-width="2" stroke-linecap="round" stroke-linejoin="round"/>
</svg>
