<?xml version="1.0" encoding="utf-8"?><svg viewBox="0 0 502.66 502.66" xmlns="http://www.w3.org/2000/svg" xmlns:xlink="http://www.w3.org/1999/xlink"><style>:root>svg{display:none}:root>svg:target{display:block}</style><svg viewBox="0 0 14 8" id="arrow" xmlns="http://www.w3.org/2000/svg"><path d="M1 1l6 6 6-6"/></svg><svg viewBox="0 0 15 9" id="arrowDown" xmlns="http://www.w3.org/2000/svg"><path d="M1.848 1.193l6 6 6-6"/></svg><svg viewBox="0 0 20 20" id="english" xmlns="http://www.w3.org/2000/svg"><g clip-path="url(#ca)"><path d="M10 20c5.523 0 10-4.477 10-10S15.523 0 10 0 0 4.477 0 10s4.477 10 10 10z"/><path d="M9.565 10H20c0-.903-.12-1.777-.344-2.609H9.566V10zm0-5.217h8.967a10.053 10.053 0 00-2.307-2.61h-6.66v2.61zM10 20a9.958 9.958 0 006.225-2.174H3.775A9.957 9.957 0 0010 20zm-8.532-4.783h17.064a9.94 9.94 0 001.124-2.609H.345a9.94 9.94 0 001.123 2.61z"/><path d="M4.632 1.562h.911l-.847.615.324.997-.848-.616-.848.616.28-.86c-.746.62-1.4 1.35-1.94 2.16h.293l-.54.393c-.084.14-.165.282-.242.427l.258.793-.481-.35a9.81 9.81 0 00-.327.777l.284.874h1.048l-.848.616.324.996-.848-.616-.508.37C.027 9.161 0 9.577 0 10h10V0a9.953 9.953 0 00-5.368 1.562zM5.02 9l-.848-.616L3.324 9l.324-.996-.847-.616h1.047l.324-.997.324.997h1.047l-.847.616L5.02 9zm-.324-3.91l.324.997-.848-.616-.848.616.324-.996-.847-.616h1.047l.324-.997.324.997h1.047l-.847.616zM8.606 9l-.847-.616L6.91 9l.324-.996-.848-.616h1.048l.324-.997.324.997H9.13l-.847.616.324.996zm-.323-3.91l.324.997-.848-.616-.848.616.324-.996-.848-.616h1.048l.324-.997.324.997H9.13l-.847.616zm0-2.913l.324.997-.848-.616-.848.616.324-.997-.848-.615h1.048L7.76.565l.324.997H9.13l-.847.615z"/></g><defs><clipPath id="ca"><path d="M0 0h20v20H0z"/></clipPath></defs></svg><svg viewBox="0 0 30 31" id="facebook" xmlns="http://www.w3.org/2000/svg"><path fill-rule="evenodd" clip-rule="evenodd" d="M30 15.588C30 7.255 23.284.5 15 .5 6.716.5 0 7.255 0 15.588c0 7.531 5.485 13.774 12.656 14.906V19.95H8.848v-4.362h3.808v-3.324c0-3.781 2.24-5.87 5.666-5.87 1.641 0 3.358.295 3.358.295v3.713h-1.892c-1.863 0-2.444 1.163-2.444 2.356v2.83h4.16l-.665 4.362h-3.495v10.544C24.514 29.361 30 23.119 30 15.588z"/></svg><svg viewBox="0 0 34 32" id="google" xmlns="http://www.w3.org/2000/svg"><path fill-rule="evenodd" clip-rule="evenodd" d="M28.7 16.272c0-.847-.078-1.662-.222-2.443H17v4.62h6.56c-.283 1.493-1.142 2.758-2.433 3.604v2.997h3.939c2.305-2.079 3.634-5.14 3.634-8.778z"/><path fill-rule="evenodd" clip-rule="evenodd" d="M17 27.944c3.29 0 6.05-1.07 8.066-2.894l-3.939-2.997c-1.091.717-2.487 1.14-4.127 1.14-3.174 0-5.861-2.1-6.82-4.924H6.11v3.095c2.005 3.903 6.127 6.58 10.891 6.58z"/><path fill-rule="evenodd" clip-rule="evenodd" d="M10.18 18.27A7.05 7.05 0 019.799 16c0-.787.139-1.553.383-2.27v-3.094H6.109a11.745 11.745 0 000 10.728l4.072-3.095z"/><path fill-rule="evenodd" clip-rule="evenodd" d="M17 8.807c1.79 0 3.396.603 4.659 1.786l3.496-3.426c-2.111-1.927-4.87-3.11-8.155-3.11-4.764 0-8.886 2.676-10.891 6.58l4.072 3.094c.958-2.823 3.645-4.924 6.82-4.924z"/></svg><svg viewBox="0 0 31 31" id="help" xmlns="http://www.w3.org/2000/svg"><path d="M15.242 27.68c6.904 0 12.5-5.597 12.5-12.5 0-6.904-5.596-12.5-12.5-12.5-6.903 0-12.5 5.596-12.5 12.5 0 6.903 5.597 12.5 12.5 12.5z"/><path d="M11.604 11.43a3.75 3.75 0 017.288 1.25c0 2.5-3.75 3.75-3.75 3.75m.1 5h.013"/></svg><svg viewBox="0 0 502.664 502.664" id="icon" xmlns="http://www.w3.org/2000/svg"><path d="M153.821 358.226L0 274.337v-46.463l153.821-83.414v54.574L46.636 250.523l107.185 53.431v54.272zm26.273 29.358L282.103 115.08h32.227L212.084 387.584h-31.99zm168.749-29.358v-54.272l107.164-52.999-107.164-52.59v-53.927l153.821 83.522v46.183l-153.821 84.083z"/></svg><svg viewBox="0 0 25 25" id="mic" xmlns="http://www.w3.org/2000/svg"><g clip-path="url(#ha)" stroke-width="2" stroke-linecap="round" stroke-linejoin="round"><path d="M12.34 1.149a3.07 3.07 0 00-2.155.879 2.977 2.977 0 00-.892 2.121v8c0 .796.32 1.559.892 2.121a3.07 3.07 0 002.154.879 3.07 3.07 0 002.154-.879 2.977 2.977 0 00.892-2.121v-8c0-.796-.32-1.559-.892-2.121a3.07 3.07 0 00-2.154-.879z"/><path d="M19.447 10.149v2a6.947 6.947 0 01-2.082 4.95 7.164 7.164 0 01-5.026 2.05 7.164 7.164 0 01-5.026-2.05 6.947 6.947 0 01-2.082-4.95v-2m7.108 9v4m-4.062 0H16.4"/></g><defs><clipPath id="ha"><path transform="translate(.154 .149)" d="M0 0h24.369v24H0z"/></clipPath></defs></svg><svg viewBox="0 0 22 23" id="pen" xmlns="http://www.w3.org/2000/svg"><path d="M16.13 2.164A2.853 2.853 0 1120.164 6.2L6.548 19.816 1 21.329l1.513-5.548L16.13 2.164z"/></svg></svg>